<?xml version="1.0" encoding="UTF-8" ?><!--THIS DOCUMENT WAS GENERATED WITH CGLIB CREATED BY FULLNITROUS RIGHTS RESERVED TO VOIDZEHN HTTPS://MDPP.XYZ HTTPS://VOIDZEHN.COM HTTPS://CGLIB.XYZ HTTPS://FULLNITROUS.COM--><svg xmlns="http://www.w3.org/2000/svg" style ="font-family: sans-serif;" version="1.1" viewBox="0 0 680.000000 400.000000" stroke-width="1"><defs><clipPath id="fd"><rect x="20.000000" y="20.000000" width="640.000000" height="360.000000"/></clipPath></defs><circle cx="340.000000" cy="200.000000" r=" 0.000000"/><g font-size="12"><g clip-path="url(#fd)"><path d="M 500.000000 200.000000 A 160.000000 160.000000 0 1 1 355.079834 40.712212 L 340.000000 200.000000 " fill= "#b26dc2"></path><path d="M 185.155243 159.712280 A 160.000000 160.000000 0 0 1 499.913513 194.740204 L 340.000000 200.000000 " fill= "#7a77d6"></path><path d="M 499.654175 189.486069 A 160.000000 160.000000 0 0 1 319.691803 358.705933 L 340.000000 200.000000 " fill= "#4182ea"></path><path d="M 500.000000 200.000000 A 160.000000 160.000000 0 1 1 185.155243 159.712280 L 340.000000 200.000000 " fill= "#b26dc2"></path><g stroke="#646464"><line x1="319.691895" y1="358.705963" x2="199.691895" y2="358.705963"/><line x1="355.079834" y1="40.712212" x2="475.079834" y2="40.712212"/><line x1="499.913513" y1="194.740204" x2="619.913513" y2="194.740204"/></g><g ><text x="199.691895" y="353.705963">Household Energy</text></g><g text-anchor="end"><text x="475.079834" y="35.712212">Transportation</text><text x="619.913513" y="189.740204">Food</text></g><g fill="#646464" dominant-baseline="hanging"><g ><text x="199.691895" y="363.705963">     54.1%</text></g><g text-anchor="end"><text x="475.079834" y="45.712212">     44.9%</text><text x="619.913513" y="199.740204">      1.0%</text></g></g></g></g></svg>