<?xml version="1.0" encoding="UTF-8" ?><!--THIS DOCUMENT WAS GENERATED WITH CGLIB CREATED BY FULLNITROUS RIGHTS RESERVED TO VOIDZEHN HTTPS://MDPP.XYZ HTTPS://VOIDZEHN.COM HTTPS://CGLIB.XYZ HTTPS://FULLNITROUS.COM--><svg xmlns="http://www.w3.org/2000/svg" style ="font-family: sans-serif;" version="1.1" viewBox="0 0 740.000000 460.000000" stroke-width="1"><defs><clipPath id="fd"><rect x="50.000000" y="50.000000" width="640.000000" height="360.000000"/></clipPath></defs><g stroke = "#dcdcdc"><line x1="50.000000" y1="410.000000" x2="690.000000" y2="410.000000"/><line x1="50.000000" y1="338.000000" x2="690.000000" y2="338.000000"/><line x1="50.000000" y1="266.000000" x2="690.000000" y2="266.000000"/><line x1="50.000000" y1="194.000000" x2="690.000000" y2="194.000000"/><line x1="50.000000" y1="122.000000" x2="690.000000" y2="122.000000"/><line x1="50.000000" y1="50.000000" x2="690.000000" y2="50.000000"/></g><g text-anchor = "end" font-size="12"><text x="45.000000" y="410.000000">     0.00</text><text x="45.000000" y="338.000000">  4000.00</text><text x="45.000000" y="266.000000">  8000.00</text><text x="45.000000" y="194.000000"> 12000.00</text><text x="45.000000" y="122.000000"> 16000.00</text><text x="45.000000" y="50.000000"> 20000.00</text></g><g stroke = "#646464"><line x1="50.000000" y1="50.000000" x2="50.000000" y2="410.000000"/><line x1="50.000000" y1="410.000000" x2="690.000000" y2="410.000000"/></g><g text-anchor = "middle" font-size="12"><g clip-path="url(#fd)"><rect fill="#c969ba" x="50.000000" y="342.123779" width="124.000000" height="67.876221"/><text x="112.000000" y="337.123779">   3770.9</text><rect fill="#a76fc6" x="179.000000" y="182.486969" width="124.000000" height="227.513031"/><text x="241.000000" y="177.486969">  12639.6</text><rect fill="#8575d2" x="308.000000" y="407.065723" width="124.000000" height=" 2.934277"/><text x="370.000000" y="402.065723">    163.0</text><rect fill="#637bde" x="437.000000" y="334.014374" width="124.000000" height="75.985626"/><text x="499.000000" y="329.014374">   4221.4</text><rect fill="#4182ea" x="566.000000" y="235.220551" width="124.000000" height="174.779449"/><text x="628.000000" y="230.220551">   9710.0</text></g><g dominant-baseline="hanging"><text x="112.000000" y="415.000000"></text><text x="241.000000" y="415.000000"></text><text x="370.000000" y="415.000000"></text><text x="499.000000" y="415.000000"></text><text x="628.000000" y="415.000000"></text></g></g></svg>