<?xml version="1.0" encoding="UTF-8" ?><!--THIS DOCUMENT WAS GENERATED WITH CGLIB CREATED BY FULLNITROUS RIGHTS RESERVED TO VOIDZEHN HTTPS://MDPP.XYZ HTTPS://VOIDZEHN.COM HTTPS://CGLIB.XYZ HTTPS://FULLNITROUS.COM--><svg xmlns="http://www.w3.org/2000/svg" style ="font-family: sans-serif;" version="1.1" viewBox="0 0 680.000000 400.000000" stroke-width="1"><defs><clipPath id="fd"><rect x="20.000000" y="20.000000" width="640.000000" height="360.000000"/></clipPath></defs><circle cx="340.000000" cy="200.000000" r=" 0.000000"/><g font-size="12"><g clip-path="url(#fd)"><path d="M 500.000000 200.000000 A 160.000000 160.000000 0 0 1 488.441528 259.708527 L 340.000000 200.000000 " fill= "#685c18"></path><path d="M 490.215881 255.092590 A 160.000000 160.000000 0 0 1 183.404877 167.167603 L 340.000000 200.000000 " fill= "#45731d"></path><path d="M 486.525421 264.267456 A 160.000000 160.000000 0 1 1 497.535004 227.977264 L 340.000000 200.000000 " fill= "#228b22"></path><path d="M 500.000000 200.000000 A 160.000000 160.000000 0 0 1 490.215881 255.092590 L 340.000000 200.000000 " fill= "#685c18"></path><g stroke="#646464"><line x1="497.534973" y1="227.977325" x2="617.534973" y2="227.977325"/><line x1="488.441528" y1="259.708527" x2="608.441528" y2="259.708527"/><line x1="183.404877" y1="167.167603" x2="63.404877" y2="167.167603"/></g><g text-anchor="end"><text x="617.534973" y="222.977325">Household Energy</text><text x="608.441528" y="254.708527">Transportation</text></g><g ><text x="63.404877" y="162.167603">Food</text></g><g fill="#646464" dominant-baseline="hanging"><g text-anchor="end"><text x="617.534973" y="232.977325">      5.6%</text><text x="608.441528" y="264.708527">      1.0%</text></g><g ><text x="63.404877" y="172.167603">     93.4%</text></g></g></g></g></svg>