<?xml version="1.0" encoding="UTF-8" ?><!--THIS DOCUMENT WAS GENERATED WITH CGLIB CREATED BY FULLNITROUS RIGHTS RESERVED TO VOIDZEHN HTTPS://MDPP.XYZ HTTPS://VOIDZEHN.COM HTTPS://CGLIB.XYZ HTTPS://FULLNITROUS.COM--><svg xmlns="http://www.w3.org/2000/svg" style ="font-family: sans-serif;" version="1.1" viewBox="0 0 680.000000 400.000000" stroke-width="1"><defs><clipPath id="fd"><rect x="20.000000" y="20.000000" width="640.000000" height="360.000000"/></clipPath></defs><circle cx="340.000000" cy="200.000000" r=" 0.000000"/><g font-size="12"><g clip-path="url(#fd)"><path d="M 500.000000 200.000000 A 160.000000 160.000000 0 0 1 206.531158 288.238708 L 340.000000 200.000000 " fill= "#685c18"></path><path d="M 334.606598 359.909058 A 160.000000 160.000000 0 1 1 369.335358 42.712250 L 340.000000 200.000000 " fill= "#45731d"></path><path d="M 190.757019 142.323883 A 160.000000 160.000000 0 1 1 451.213928 315.028076 L 340.000000 200.000000 " fill= "#228b22"></path><path d="M 500.000000 200.000000 A 160.000000 160.000000 0 0 1 334.606598 359.909058 L 340.000000 200.000000 " fill= "#685c18"></path><g stroke="#646464"><line x1="451.213867" y1="315.028137" x2="571.213867" y2="315.028137"/><line x1="206.531158" y1="288.238708" x2="86.531158" y2="288.238708"/><line x1="369.335358" y1="42.712250" x2="489.335358" y2="42.712250"/></g><g text-anchor="end"><text x="571.213867" y="310.028137">Household Energy</text></g><g ><text x="86.531158" y="283.238708">Transportation</text></g><g text-anchor="end"><text x="489.335358" y="37.712250">Food</text></g><g fill="#646464" dominant-baseline="hanging"><g text-anchor="end"><text x="571.213867" y="320.028137">     25.5%</text></g><g ><text x="86.531158" y="293.238708">     30.3%</text></g><g text-anchor="end"><text x="489.335358" y="47.712250">     44.1%</text></g></g></g></g></svg>